<svg width="20" height="11" viewBox="0 0 20 11" fill="none" xmlns="http://www.w3.org/2000/svg">
<path d="M18.8264 0.817483C18.6523 0.643246 18.4455 0.505027 18.218 0.410724C17.9904 0.316421 17.7465 0.267883 17.5002 0.267883C17.2538 0.267883 17.0099 0.316421 16.7823 0.410724C16.5548 0.505027 16.348 0.643246 16.1739 0.817483L10.4414 6.54873C10.3242 6.6659 10.1653 6.73173 9.99953 6.73173C9.83381 6.73173 9.67486 6.6659 9.55766 6.54873L3.82641 0.817483C3.47483 0.46574 2.99792 0.268066 2.5006 0.267949C2.00328 0.267832 1.52628 0.46528 1.17453 0.816858C0.82279 1.16844 0.625117 1.64534 0.625 2.14267C0.624883 2.63999 0.822331 3.11699 1.17391 3.46873L6.90641 9.20123C7.31267 9.60754 7.79499 9.92984 8.32581 10.1497C8.85664 10.3696 9.42559 10.4828 10.0002 10.4828C10.5747 10.4828 11.1437 10.3696 11.6745 10.1497C12.2053 9.92984 12.6876 9.60754 13.0939 9.20123L18.8264 3.46873C19.1779 3.11712 19.3754 2.64029 19.3754 2.14311C19.3754 1.64593 19.1779 1.1691 18.8264 0.817483Z" fill="#262525"/>
</svg>
