<svg width="1261" height="625" viewBox="0 0 1261 625" fill="none" xmlns="http://www.w3.org/2000/svg">
<path d="M1007.18 1.86662V10.576C1007.19 11.0738 1007 11.5539 1006.65 11.9059C1006.29 12.2579 1005.81 12.4516 1005.32 12.4423L962.391 12.4423C961.893 12.4516 961.413 12.2579 961.061 11.9059C960.709 11.5539 960.516 11.0738 960.525 10.576V1.86662C960.516 1.36888 960.709 0.888806 961.061 0.536789C961.413 0.184773 961.893 -0.00889621 962.391 0.000314122L1005.32 0.000314122C1005.81 -0.00889621 1006.29 0.184773 1006.65 0.536789C1007 0.888806 1007.19 1.36888 1007.18 1.86662Z" fill="#3A393E"/>
<path fill-rule="evenodd" clip-rule="evenodd" d="M960.525 1.86662V10.576C960.516 11.0738 960.709 11.5539 961.061 11.9059C961.413 12.2579 961.893 12.4516 962.391 12.4423L1005.32 12.4423C1005.81 12.4516 1006.29 12.2579 1006.65 11.9059C1007 11.5539 1007.19 11.0738 1007.18 10.576V1.86662C1007.19 1.36888 1007 0.888806 1006.65 0.536789C1006.29 0.184773 1005.81 -0.00889621 1005.32 0.000314122L962.391 0.000314122C961.893 -0.00889621 961.413 0.184773 961.061 0.536789C960.709 0.888806 960.516 1.36888 960.525 1.86662ZM1005.32 0.622101C1006 0.624151 1006.56 1.18 1006.56 1.8663V10.5757C1006.56 11.262 1006 11.8179 1005.32 11.8199L962.391 11.8199C961.705 11.8179 961.149 11.262 961.147 10.5757V1.8663C961.149 1.18 961.705 0.624151 962.391 0.622101L1005.32 0.622101Z" fill="#5A595F"/>
<path d="M916.978 3.1107V11.8201C916.987 12.3179 916.793 12.7979 916.441 13.15C916.089 13.502 915.609 13.6956 915.112 13.6864L823.663 13.6864C823.165 13.6956 822.685 13.502 822.333 13.15C821.981 12.7979 821.787 12.3179 821.796 11.8201V3.1107C821.787 2.61296 821.981 2.13289 822.333 1.78087C822.685 1.42885 823.165 1.23518 823.663 1.24439L915.112 1.24439C915.609 1.23518 916.089 1.42885 916.441 1.78087C916.793 2.13289 916.987 2.61296 916.978 3.1107Z" fill="#3A393E"/>
<path fill-rule="evenodd" clip-rule="evenodd" d="M821.796 3.1107V11.8201C821.787 12.3179 821.981 12.7979 822.333 13.15C822.685 13.502 823.165 13.6956 823.663 13.6864L915.112 13.6864C915.609 13.6956 916.089 13.502 916.441 13.15C916.793 12.7979 916.987 12.3179 916.978 11.8201V3.1107C916.987 2.61296 916.793 2.13289 916.441 1.78087C916.089 1.42885 915.609 1.23518 915.112 1.24439L823.663 1.24439C823.165 1.23518 822.685 1.42885 822.333 1.78087C821.981 2.13289 821.787 2.61296 821.796 3.1107ZM915.112 1.86664C915.798 1.86869 916.354 2.42454 916.356 3.11084V11.8203C916.354 12.5066 915.798 13.0624 915.112 13.0645L823.663 13.0645C822.977 13.0624 822.421 12.5066 822.419 11.8203V3.11084C822.421 2.42454 822.977 1.86869 823.663 1.86664L915.112 1.86664Z" fill="#5A595F"/>
<path d="M884.628 614.015V622.724C884.638 623.222 884.444 623.702 884.092 624.054C883.74 624.406 883.26 624.6 882.762 624.59H736.568C736.07 624.6 735.59 624.406 735.238 624.054C734.886 623.702 734.693 623.222 734.702 622.724V614.015C734.693 613.517 734.886 613.037 735.238 612.685C735.59 612.333 736.07 612.139 736.568 612.148H882.762C883.26 612.139 883.74 612.333 884.092 612.685C884.444 613.037 884.638 613.517 884.628 614.015Z" fill="#3A393E"/>
<path fill-rule="evenodd" clip-rule="evenodd" d="M734.702 614.015V622.724C734.693 623.222 734.886 623.702 735.238 624.054C735.59 624.406 736.07 624.6 736.568 624.59H882.762C883.26 624.6 883.74 624.406 884.092 624.054C884.444 623.702 884.638 623.222 884.628 622.724V614.015C884.638 613.517 884.444 613.037 884.092 612.685C883.74 612.333 883.26 612.139 882.762 612.148H736.568C736.07 612.139 735.59 612.333 735.238 612.685C734.886 613.037 734.693 613.517 734.702 614.015ZM882.762 612.77C883.449 612.773 884.004 613.328 884.007 614.015V622.724C884.004 623.41 883.449 623.966 882.762 623.968H736.568C735.882 623.966 735.326 623.41 735.324 622.724V614.015C735.326 613.328 735.882 612.773 736.568 612.77H882.762Z" fill="#5A595F"/>
<path d="M796.913 3.1107V11.8201C796.922 12.3179 796.728 12.7979 796.376 13.15C796.024 13.502 795.544 13.6956 795.046 13.6864L703.598 13.6864C703.1 13.6956 702.62 13.502 702.268 13.15C701.916 12.7979 701.722 12.3179 701.731 11.8201V3.1107C701.722 2.61296 701.916 2.13289 702.268 1.78087C702.62 1.42885 703.1 1.23518 703.598 1.24439L795.046 1.24439C795.544 1.23518 796.024 1.42885 796.376 1.78087C796.728 2.13289 796.922 2.61296 796.913 3.1107Z" fill="#3A393E"/>
<path fill-rule="evenodd" clip-rule="evenodd" d="M701.731 3.1107V11.8201C701.722 12.3179 701.916 12.7979 702.268 13.15C702.62 13.502 703.1 13.6956 703.598 13.6864L795.046 13.6864C795.544 13.6956 796.024 13.502 796.376 13.15C796.728 12.7979 796.922 12.3179 796.913 11.8201V3.1107C796.922 2.61296 796.728 2.13289 796.376 1.78087C796.024 1.42885 795.544 1.23518 795.046 1.24439L703.598 1.24439C703.1 1.23518 702.62 1.42885 702.268 1.78087C701.916 2.13289 701.722 2.61296 701.731 3.1107ZM795.047 1.86665C795.733 1.8687 796.289 2.42455 796.291 3.11085V11.8203C796.289 12.5066 795.733 13.0624 795.047 13.0645L703.598 13.0645C702.911 13.0624 702.356 12.5066 702.354 11.8203V3.11085C702.356 2.42455 702.911 1.8687 703.598 1.86665L795.047 1.86665Z" fill="#5A595F"/>
<path d="M1261 99.5366V525.676C1260.98 577.891 1218.66 620.215 1166.44 620.236L94.5594 620.236C42.3445 620.215 0.0209961 577.891 0 525.676V99.5366C0.0209961 47.3215 42.3445 4.99805 94.5594 4.97711L1166.44 4.97711C1218.66 4.99805 1260.98 47.3215 1261 99.5366Z" fill="#3A393E"/>
<path fill-rule="evenodd" clip-rule="evenodd" d="M0 99.5366V525.676C0 577.808 42.4274 620.236 94.5594 620.236L1166.44 620.236C1218.57 620.236 1261 577.808 1261 525.676V99.5366C1261 47.4044 1218.57 4.97711 1166.44 4.97711L94.5594 4.97711C42.4274 4.97711 0 47.4044 0 99.5366ZM1166.44 5.59911C1218.26 5.59911 1260.38 47.7154 1260.38 99.5365V525.676C1260.38 577.497 1218.26 619.613 1166.44 619.613L94.5593 619.613C42.7383 619.613 0.621948 577.497 0.621948 525.676V99.5365C0.621948 47.7154 42.7383 5.59911 94.5593 5.59911L1166.44 5.59911Z" fill="#5A595F"/>
<path d="M9.64233 521.943V103.269C9.64783 97.2724 10.2522 91.2913 11.4464 85.4148C13.7795 74.0935 18.3019 63.337 24.7594 53.7498C27.9669 49.0588 31.5897 44.6657 35.584 40.6235C43.6621 32.5356 53.2327 26.0918 63.7651 21.6494C69.1257 19.4058 74.6875 17.6769 80.3754 16.4859C86.2523 15.2948 92.2332 14.6905 98.2296 14.6818L1162.09 14.6818C1168.08 14.6873 1174.06 15.2917 1179.94 16.4859C1191.26 18.819 1202.02 23.3413 1211.6 29.7989C1216.3 33.0064 1220.69 36.6292 1224.73 40.6235C1232.82 48.7015 1239.26 58.2721 1243.71 68.8047C1245.95 74.1653 1247.68 79.727 1248.87 85.4148C1250.06 91.2918 1250.66 97.2726 1250.67 103.269V521.943C1250.67 527.94 1250.06 533.921 1248.87 539.798C1246.54 551.119 1242.01 561.876 1235.56 571.463C1232.35 576.154 1228.73 580.547 1224.73 584.589C1220.73 588.63 1216.33 592.257 1211.6 595.414C1206.86 598.613 1201.82 601.342 1196.55 603.563C1191.19 605.807 1185.63 607.536 1179.94 608.727C1174.06 609.918 1168.08 610.522 1162.09 610.531L98.2919 610.531C92.2952 610.525 86.3141 609.921 80.4375 608.727C69.1162 606.394 58.3597 601.871 48.7726 595.414C44.0815 592.206 39.6885 588.583 35.6462 584.589C27.5583 576.511 21.1145 566.94 16.6721 556.408C14.4286 551.047 12.6996 545.486 11.5087 539.798C10.2632 533.928 9.6377 527.944 9.64233 521.943Z" fill="black"/>
<circle cx="1214.65" cy="227.378" r="11.5089" transform="rotate(90 1214.65 227.378)" fill="#3A393E"/>
<circle cx="1214.65" cy="227.378" r="5.90997" transform="rotate(90 1214.65 227.378)" fill="black"/>
<path fill-rule="evenodd" clip-rule="evenodd" d="M1238.6 353.976V264.394C1238.61 260.962 1241.39 258.182 1244.82 258.173H1250.42C1250.59 258.162 1250.76 258.225 1250.87 258.344C1250.99 258.463 1251.06 258.627 1251.05 258.795V359.575C1251.06 359.743 1250.99 359.907 1250.87 360.026C1250.76 360.145 1250.59 360.207 1250.42 360.197H1244.82C1241.39 360.187 1238.61 357.408 1238.6 353.976ZM1250.42 258.795H1244.82C1243.34 258.788 1241.91 259.376 1240.86 260.428C1239.81 261.479 1239.22 262.907 1239.23 264.394V353.976C1239.22 355.463 1239.81 356.891 1240.86 357.942C1241.91 358.993 1243.34 359.581 1244.82 359.575H1250.42V258.795Z" fill="#3A393E"/>
<rect x="1260.38" y="488.972" width="9.33152" height="9.70479" transform="rotate(90 1260.38 488.972)" fill="black"/>
<rect x="1133.47" y="5.59918" width="9.08268" height="8.08732" transform="rotate(90 1133.47 5.59918)" fill="black"/>
<rect x="137.484" y="5.59918" width="9.08268" height="8.08732" transform="rotate(90 137.484 5.59918)" fill="black"/>
<path fill-rule="evenodd" clip-rule="evenodd" d="M1245.34 260.039C1243.24 260.039 1241.54 261.727 1241.51 263.826V354.279C1241.54 356.379 1243.24 358.066 1245.34 358.066C1247.44 358.066 1249.15 356.379 1249.18 354.279V263.826C1249.15 261.727 1247.44 260.039 1245.34 260.039ZM1247.97 353.977V352.77H1247.37V352.165H1247.97V352.767H1248.54V353.977H1247.97ZM1247.37 354.581H1247.97V353.977H1247.37L1247.37 352.77H1246.16V353.979H1245.55V354.584H1244.34V355.793H1243.74V356.398H1242.96C1243.19 356.643 1243.45 356.85 1243.74 357.012V356.398H1244.34L1244.34 357.271C1244.67 357.372 1245 357.423 1245.34 357.422C1245.41 357.422 1245.48 357.422 1245.55 357.416V356.395H1246.16V355.791H1247.37V354.581ZM1245.55 356.395H1244.34L1244.34 355.793H1245.55L1245.55 356.395ZM1246.16 355.791H1245.55L1245.55 354.584H1246.16L1246.16 355.791ZM1247.37 354.581H1246.16L1246.16 353.979H1247.37L1247.37 354.581ZM1247.97 352.165V350.956H1248.54V352.165H1247.97ZM1247.97 355.791V354.581H1248.52C1248.49 355.005 1248.36 355.417 1248.16 355.791H1247.97ZM1247.37 356.395V355.791H1247.97V356.093C1247.89 356.198 1247.81 356.3 1247.73 356.395H1247.37ZM1247.37 356.395V356.731C1247.01 357.012 1246.6 357.215 1246.16 357.324V356.395H1247.37ZM1243.23 261.455H1243.74V261.098C1243.56 261.2 1243.38 261.32 1243.23 261.455ZM1247.97 349.141V350.349H1248.54V349.141H1247.97ZM1247.97 350.351H1247.37V350.954H1247.97V350.351ZM1247.37 350.956H1246.16V352.164H1247.37V350.956ZM1246.16 352.165H1245.55V352.768H1246.16V352.165ZM1245.55 352.77H1244.34V353.978H1245.55V352.77ZM1244.34 353.979H1243.74V354.582H1244.34V353.979ZM1243.74 354.584H1242.53V355.792H1243.74V354.584ZM1242.15 263.869V263.819L1242.15 263.829C1242.15 263.643 1242.16 263.457 1242.2 263.273H1242.53V263.869H1242.15ZM1243.74 263.27H1243.74V263.27H1243.74V263.27ZM1244.34 263.27H1243.74V262.064H1242.69C1242.63 262.147 1242.58 262.233 1242.53 262.322V263.27H1243.74V263.875H1242.53V265.084H1242.15L1242.15 265.685H1242.53V265.084H1243.74V263.875H1244.34V263.27ZM1244.34 262.061V263.27H1245.55V262.06H1246.16V261.455H1247.37V261.376C1247.01 261.095 1246.6 260.892 1246.16 260.783V261.455H1245.55V260.691C1245.48 260.687 1245.41 260.685 1245.34 260.685C1245 260.684 1244.67 260.735 1244.34 260.836V261.455H1245.55V262.06H1244.34V261.459H1243.74V262.061H1244.34ZM1244.34 262.061H1244.34V262.06H1244.34V262.061ZM1245.55 261.455H1245.55V261.455H1245.55V261.455ZM1242.53 269.314H1242.15L1242.15 268.714H1242.53V269.314ZM1243.74 268.709H1242.53V267.504H1242.15V266.899H1242.53V265.689H1243.74V266.899H1242.53V267.504H1243.74V268.709ZM1243.74 267.503V266.899H1244.34V267.503H1243.74ZM1244.34 265.689H1243.74V265.084H1244.34V265.689ZM1244.34 265.689H1245.55V266.899H1245.55V266.899H1244.34V265.689ZM1245.55 266.899H1245.55V266.899H1246.16V267.503H1245.55V266.899ZM1246.16 265.689V266.899H1247.37V267.503H1247.97V266.899H1248.54V265.689H1247.97V265.084H1248.54V263.875H1247.97V263.27H1248.5C1248.37 262.564 1248.01 261.922 1247.47 261.455H1247.37V262.06H1246.16V263.27H1245.55V263.875H1244.34V265.084H1245.55V265.689H1246.16ZM1246.16 265.689V265.689H1246.16V265.689H1246.16ZM1246.16 265.084H1245.55V263.875H1246.16V265.084ZM1246.16 265.084V265.689H1247.37V266.899H1247.97V265.689H1247.37V265.084H1247.37V265.084H1247.97V263.875H1247.97V263.875H1247.97V263.875H1247.37V263.27H1247.97V262.061H1247.37V263.27H1246.16V263.875H1247.37V265.084H1247.37V265.084H1246.16ZM1242.15 271.128H1242.53V270.526H1243.74V271.13H1242.53V272.337H1243.74V271.13H1244.34V270.526H1245.55V269.318H1244.34V270.526H1243.74V269.318H1242.53V270.526H1242.15L1242.15 271.128ZM1243.74 269.317H1244.34V268.713H1243.74V269.317ZM1244.34 268.712H1245.55V267.504H1244.34V268.712ZM1242.53 272.942H1242.15L1242.15 272.339H1242.53V272.942ZM1246.16 269.317H1245.55V268.713H1246.16V269.317ZM1247.37 268.712H1246.16V267.504H1247.37V268.712ZM1242.15 274.757H1242.53V274.154H1242.15L1242.15 274.757ZM1242.53 274.152H1243.74V272.946H1244.34V274.154H1243.74V274.759H1242.53V275.966H1243.74V274.76H1244.34V275.968H1243.74V276.573H1242.53V277.78H1243.74V276.574H1244.34V275.969H1245.55V274.76H1246.16V274.155H1247.37V272.946H1247.97V272.34H1248.54V271.13H1247.97V270.526H1248.54V269.317H1247.97V270.526H1247.37V271.13H1246.16V272.339H1245.55V271.13H1246.16V270.526H1247.37V269.317H1247.97V268.712H1248.54V267.503H1247.97V268.712H1247.37V269.317H1246.16V270.526H1245.55V271.13H1244.34V272.339H1243.74V272.944H1242.53V274.152ZM1247.37 272.339V271.13H1247.97V272.339H1247.37ZM1244.34 274.155V274.758H1245.55V274.155H1244.34ZM1245.55 272.946V274.154H1246.16V272.946H1245.55ZM1246.16 272.34V272.944H1247.37V272.34H1246.16ZM1245.55 272.34V272.944H1244.34V272.34H1245.55ZM1242.53 276.571H1242.15L1242.15 275.968H1242.53V276.571ZM1242.15 278.385H1242.53V277.782H1242.15L1242.15 278.385ZM1242.53 280.199H1242.15L1242.15 279.597H1242.53V280.199ZM1243.74 279.594H1242.53V278.388H1243.74V279.594ZM1244.34 278.388H1243.74V277.783H1244.34V278.388H1245.55V279.597H1244.34V278.388ZM1243.74 279.597H1244.34V280.202H1243.74V279.597ZM1242.53 280.202H1243.74V281.408H1242.53V280.202ZM1246.16 278.388H1245.55V277.783H1244.34V276.574H1245.55V277.783H1246.16V278.388ZM1247.37 277.783H1246.16V276.574H1245.55V275.969H1246.16V276.574H1247.37V277.783ZM1247.97 276.574H1247.37V275.969H1246.16V274.76H1247.37V275.969H1247.97V276.574ZM1247.97 274.155V274.76H1248.54V275.969H1247.97V274.76H1247.37V274.155H1247.97ZM1247.97 274.155V272.946H1248.54V274.155H1247.97ZM1242.15 282.013H1242.53V281.411H1242.15L1242.15 282.013ZM1242.53 283.828H1242.15L1242.15 283.226H1242.53V283.828ZM1243.74 283.222H1242.53V282.017H1243.74V283.222ZM1244.34 282.017H1243.74V281.411H1244.34V280.202H1245.55V281.411H1246.16V280.202H1245.55V279.597H1246.16V280.202H1247.37V281.411H1247.97V280.202H1247.37V279.597H1246.16V278.388H1247.37V279.597H1247.97V280.202H1248.54V281.412H1247.97V282.016H1247.37V281.412H1246.16V282.016H1247.37V283.225H1246.16V282.016H1245.55V281.412H1244.34V282.016H1245.55V283.225H1244.34V282.017ZM1247.97 277.783V278.388H1248.54V279.597H1247.97V278.388H1247.37V277.783H1247.97ZM1247.97 277.783V276.574H1248.54V277.783H1247.97ZM1242.15 285.641H1242.53V285.04H1243.74V285.644H1242.53V286.851H1243.74V285.644H1244.34V285.04H1245.55V283.831H1244.34V285.04H1243.74V283.831H1242.53V285.04H1242.15L1242.15 285.641ZM1243.74 283.83H1244.34V283.226H1243.74V283.83ZM1242.53 287.455H1242.15L1242.15 286.854H1242.53V287.455ZM1246.16 283.83H1245.55V283.226H1246.16V283.83ZM1242.15 289.27H1242.53V288.668H1242.15L1242.15 289.27ZM1242.53 288.665H1243.74V287.459H1244.34V288.668H1243.74V289.272H1242.53V290.479H1243.74V289.272H1244.34V288.668H1245.55V287.458H1246.16V286.854H1247.37V285.644H1247.97V285.04H1248.54V283.83H1247.97V283.226H1247.37V283.831H1247.97V285.04H1247.37V283.831H1246.16V285.04H1245.55V285.645H1244.34V286.854H1243.74V287.459H1242.53V288.665ZM1244.34 287.458V286.854H1245.55V287.458H1244.34ZM1245.55 286.854V285.645H1246.16V286.854H1245.55ZM1246.16 285.644V285.04H1247.37V285.644H1246.16ZM1247.97 283.225H1248.54V282.016H1247.97V283.225ZM1242.53 291.083H1242.15L1242.15 290.482H1242.53V291.083ZM1242.15 292.897H1242.53V292.296H1242.15L1242.15 292.897ZM1242.53 292.293H1243.74V291.087H1244.34V290.482H1245.55V289.273H1246.16V288.668H1247.37V287.458H1247.97V286.854H1248.54V285.644H1247.97V286.854H1247.37V287.458H1246.16V288.668H1245.55V289.273H1244.34V290.482H1243.74V291.087H1242.53V292.293ZM1242.53 294.712H1242.15L1242.15 294.11H1242.53V294.712ZM1243.74 294.11H1242.53V292.903H1243.74V294.11H1244.34V294.715H1243.74V294.11ZM1242.53 294.715H1243.74V295.922H1242.53V294.715ZM1245.55 294.11H1244.34V292.903H1243.74V292.296H1244.34V291.087H1245.55V292.296H1246.16V291.087H1245.55V290.482H1246.16V291.087H1247.37V292.296H1247.97V291.087H1248.54V292.299H1247.97V292.903H1247.37V292.298H1246.16V292.903H1245.55V292.299H1244.34V292.903H1245.55V294.11ZM1246.16 292.903H1247.37V294.11H1246.16V292.903ZM1245.55 294.11H1246.16V294.715H1245.55V294.11ZM1244.34 294.715H1245.55V295.925H1244.34V294.715ZM1243.74 295.925H1244.34V296.529H1243.74V295.925ZM1242.53 296.529H1243.74V297.736H1242.53V296.529ZM1247.97 291.087H1247.37V290.482H1246.16V289.273H1247.37V290.482H1247.97V291.087ZM1247.97 288.668V289.273H1248.54V290.482H1247.97V289.273H1247.37V288.668H1247.97ZM1247.97 288.668V287.459H1248.54V288.668H1247.97ZM1242.15 296.526H1242.53V295.925H1242.15L1242.15 296.526ZM1242.53 298.34H1242.15L1242.15 297.739H1242.53V298.34ZM1242.15 300.155H1242.53V299.553H1242.15L1242.15 300.155ZM1242.53 299.55H1243.74V298.344H1244.34V299.553H1243.74V300.158H1242.53V301.364H1242.15L1242.15 301.969H1242.53V303.178H1242.15L1242.15 303.783H1242.53V303.178H1243.74V301.972H1244.34V303.178H1243.74V303.783H1242.53V304.992H1242.15L1242.15 305.597H1242.53V304.992H1243.74V303.786H1244.34V304.992H1243.74V305.597H1242.53V306.807H1242.15L1242.15 307.411H1242.53V306.807H1243.74V305.6H1244.34V306.81H1243.74V307.414H1242.53V308.624H1242.15L1242.15 309.225H1242.53V308.624H1243.74V307.414H1244.34V306.81H1245.55V305.6H1246.16V304.995H1247.37V303.786H1247.97V303.181H1248.54V301.972H1247.97V301.364H1248.54V300.158H1247.97V301.364H1247.37V301.969H1246.16V301.364H1247.37V300.158H1247.97V299.553H1248.54V298.344H1247.97V299.553H1247.37V300.158H1246.16V301.364H1245.55V301.968H1244.34V301.364H1245.55V300.158H1246.16V299.553H1247.37V298.343H1247.97V297.739H1248.54V296.529H1247.97V295.925H1248.54V294.715H1247.97V294.11H1248.54V292.903H1247.97V294.11H1247.37V294.716H1246.16V295.925H1245.55V296.53H1244.34V297.739H1243.74V298.344H1242.53V299.55ZM1247.97 295.925H1247.37V294.716H1247.97V295.925ZM1244.34 298.344V297.739H1245.55V298.344H1244.34ZM1245.55 299.553V298.344H1246.16V299.553H1245.55ZM1245.55 299.553V300.158H1244.34V299.553H1245.55ZM1244.34 300.158V301.364H1243.74V300.158H1244.34ZM1247.97 301.972V303.181H1247.37V301.972H1247.97ZM1247.37 303.181V303.786H1246.16V303.181H1247.37ZM1246.16 303.786V304.995H1245.55V303.786H1246.16ZM1245.55 304.995V305.6H1244.34V304.995H1245.55ZM1242.53 301.968V301.364H1243.74V301.968H1242.53ZM1245.55 297.739V296.53H1246.16V297.739H1245.55ZM1246.16 298.343V297.739H1247.37V298.343H1246.16ZM1246.16 296.53V295.925H1247.37V296.53H1246.16ZM1247.37 297.739V296.53H1247.97V297.739H1247.37ZM1244.34 303.181V303.783H1245.55V303.181H1244.34ZM1245.55 301.972V303.178H1246.16V301.972H1245.55ZM1242.15 311.04H1242.53V310.438H1242.15L1242.15 311.04ZM1242.53 310.435H1243.74V309.229H1244.34V310.438H1243.74V311.042H1242.53V312.25H1242.15L1242.15 312.853H1242.53V312.25H1243.74V311.042H1244.34V310.438H1245.55V309.228H1246.16V308.624H1247.37V307.414H1247.97V306.81H1248.54V305.6H1247.97V304.995H1248.54V303.786H1247.97V304.995H1247.37V305.601H1246.16V306.81H1245.55V307.415H1244.34V308.624H1243.74V309.229H1242.53V310.435ZM1244.34 309.228V308.624H1245.55V309.228H1244.34ZM1245.55 308.624V307.415H1246.16V308.624H1245.55ZM1246.16 307.414V306.81H1247.37V307.414H1246.16ZM1247.37 306.81V305.601H1247.97V306.81H1247.37ZM1242.15 314.668H1242.53V314.065H1242.15L1242.15 314.668ZM1242.53 314.063H1243.74V312.857H1244.34V314.065H1243.74V314.669H1242.53V315.877H1243.74V314.671H1244.34V315.879H1243.74V316.484H1242.53V317.692H1243.74V316.485H1244.34V317.695H1243.74V318.299H1242.53V319.506H1243.74V318.299H1244.34V319.509H1243.74V320.113H1242.53V321.32H1243.74V320.113H1244.34V319.509H1245.55V318.299H1246.16V317.695H1247.37V316.485H1247.97V315.88H1248.54V314.671H1247.97V314.066H1248.54V312.857H1247.97V312.251H1248.54V311.043H1247.97V312.251H1247.37V312.855H1246.16V312.251H1247.37V311.042H1247.97V310.438H1248.54V309.228H1247.97V308.624H1248.54V307.414H1247.97V308.624H1247.37V309.228H1246.16V310.438H1245.55V311.043H1244.34V312.251H1243.74V312.855H1242.53V314.063ZM1244.34 312.855V312.251H1245.55V312.855H1244.34ZM1245.55 312.251V311.043H1246.16V312.251H1245.55ZM1247.97 312.857V314.066H1247.37V312.857H1247.97ZM1247.97 314.671V315.88H1247.37V314.671H1247.97ZM1247.37 314.066V314.671H1246.16V314.066H1247.37ZM1247.37 315.88V316.485H1246.16V315.88H1247.37ZM1246.16 314.671V315.88H1245.55V314.671H1246.16ZM1246.16 316.485V317.695H1245.55V316.485H1246.16ZM1245.55 315.88V316.485H1244.34V315.88H1245.55ZM1245.55 317.695V318.299H1244.34V317.695H1245.55ZM1246.16 311.042V310.438H1247.37V311.042H1246.16ZM1247.37 310.438V309.228H1247.97V310.438H1247.37ZM1244.34 314.066V314.669H1245.55V314.066H1244.34ZM1245.55 312.856V314.065H1246.16V312.856H1245.55ZM1242.53 316.482H1242.15L1242.15 315.879H1242.53V316.482ZM1242.15 318.296H1242.53V317.693H1242.15L1242.15 318.296ZM1242.53 320.11H1242.15L1242.15 319.509H1242.53V320.11ZM1242.15 321.924H1242.53V321.323H1242.15L1242.15 321.924ZM1242.53 323.738H1242.15L1242.15 323.137H1242.53V323.738ZM1243.74 323.137H1242.53V321.927H1243.74V323.137ZM1244.34 321.927H1243.74V321.323H1244.34V321.927ZM1245.55 321.323H1244.34V320.113H1245.55V321.323ZM1246.16 320.113H1245.55V319.509H1246.16V320.113ZM1247.37 319.509H1246.16V318.299H1247.37V319.509ZM1247.97 318.299H1247.37V317.695H1247.97V318.299ZM1247.97 317.695V316.485H1248.54V317.695H1247.97ZM1242.15 325.552H1242.53V324.951H1242.15L1242.15 325.552ZM1242.53 324.948H1243.74V323.742H1242.53V324.948ZM1243.74 323.738H1244.34V323.137H1245.55V323.738H1246.16V323.137H1247.37V321.927H1247.97V321.323H1248.54V320.113H1247.97V319.509H1248.54V318.299H1247.97V319.509H1247.37V320.113H1246.16V321.323H1245.55V321.927H1244.34V323.137H1243.74V323.738ZM1245.55 323.137V321.927H1246.16V323.137H1245.55ZM1246.16 321.927V321.323H1247.37V321.927H1246.16ZM1247.37 321.323V320.113H1247.97V321.323H1247.37ZM1242.53 327.366H1242.15L1242.15 326.765H1242.53V327.366ZM1243.74 326.762H1242.53V325.556H1243.74V326.762ZM1244.34 325.552H1243.74V324.951H1244.34V325.552ZM1245.55 324.948H1244.34V323.742H1245.55V324.948ZM1242.15 329.181H1242.53V328.58H1242.15L1242.15 329.181ZM1242.53 328.576H1243.74V327.37H1242.53V328.576ZM1243.74 327.368H1244.34V326.765H1243.74V327.368ZM1244.34 326.763H1245.55V325.556H1244.34V326.763ZM1245.55 325.554H1246.16V324.951H1245.55V325.554ZM1246.16 324.949H1247.37V323.742H1246.16V324.949ZM1247.37 323.74H1247.97V323.137H1248.54V321.927H1247.97V323.137H1247.37V323.74ZM1242.53 330.995H1242.15L1242.15 330.392H1242.53V330.995ZM1243.74 330.391H1242.53V329.182H1243.74V330.391ZM1244.34 329.181H1243.74V328.578H1244.34V329.181ZM1245.55 328.576H1244.34V327.368H1245.55V328.576ZM1246.16 327.368H1245.55V326.763H1246.16V327.368ZM1247.37 326.763H1246.16V325.554H1247.37V326.763ZM1247.97 325.554H1247.37V324.949H1247.97V325.554ZM1247.97 324.949V323.74H1248.54V324.949H1247.97ZM1242.15 332.809H1242.53V332.206H1242.15L1242.15 332.809ZM1242.53 332.205H1243.74V330.997H1242.53V332.205ZM1243.74 330.995H1244.34V330.392H1243.74V330.995ZM1244.34 330.391H1245.55V329.183H1244.34V330.391ZM1245.55 329.181H1246.16V328.578H1245.55V329.181ZM1246.16 328.577H1247.37V327.368H1247.97V328.578H1247.37V329.182H1246.16V330.392H1245.55V330.996H1244.34V332.206H1243.74V332.81H1242.53V334.024H1242.15L1242.15 334.623H1242.53V334.024H1243.74V332.815H1244.34V332.21H1245.55V331.001H1246.16V330.396H1247.37V329.187H1247.97V328.582H1248.54V327.368H1247.97V326.763H1248.54V325.554H1247.97V326.763H1247.37V327.368H1246.16V328.577ZM1242.15 336.437H1242.53V335.838H1242.15L1242.15 336.437ZM1242.53 335.833H1243.74V334.629H1242.53V335.833ZM1243.74 334.623H1244.34V334.024H1245.55V334.623H1246.16V334.024H1247.37V334.626H1247.97V334.024H1248.54V332.815H1247.97V332.21H1248.54V331.001H1247.97V330.396H1248.54V329.187H1247.97V330.396H1247.37V331.001H1246.16V332.21H1245.55V332.815H1244.34V334.024H1243.74V334.623ZM1247.97 332.21H1247.37V331.001H1247.97V332.21ZM1245.55 334.024V332.815H1246.16V334.024H1245.55ZM1246.16 332.815V332.21H1247.37V332.815H1246.16ZM1247.37 334.024V332.815H1247.97V334.024H1247.37ZM1242.53 338.251H1242.15L1242.15 337.652H1242.53V338.251ZM1243.74 337.647H1242.53V336.443H1243.74V337.647ZM1244.34 336.437H1243.74V335.838H1244.34V336.437ZM1245.55 335.833H1244.34V334.629H1245.55V335.833ZM1242.15 340.066H1242.53V339.467H1242.15L1242.15 340.066ZM1242.53 339.461H1243.74V338.257H1242.53V339.461ZM1243.74 338.254H1244.34V337.652H1243.74V338.254ZM1244.34 337.65H1245.55V336.443H1244.34V337.65ZM1245.55 336.44H1246.16V335.838H1245.55V336.44ZM1246.16 335.836H1247.37V334.629H1246.16V335.836ZM1242.53 341.88H1242.15L1242.15 341.279H1242.53V341.88ZM1243.74 341.276H1242.53V340.069H1243.74V341.276ZM1244.34 340.066H1243.74V339.465H1244.34V340.066ZM1245.55 339.462H1244.34V338.255H1245.55V339.462ZM1246.16 338.255H1245.55V337.65H1246.16V338.255H1247.37V339.461H1246.16V338.255ZM1247.97 338.255H1247.37V337.65H1246.16V336.441H1247.37V337.65H1247.97V338.254H1248.54V339.461H1247.97V338.255ZM1247.97 335.836V336.441H1248.54V337.65H1247.97V336.441H1247.37V335.836H1247.97ZM1247.97 335.836V334.627H1248.54V335.836H1247.97ZM1242.15 343.694H1242.53V343.093H1242.15L1242.15 343.694ZM1242.53 343.09H1243.74V341.883H1242.53V343.09ZM1243.74 341.88H1244.34V341.279H1243.74V341.88ZM1244.34 341.276H1245.55V340.069H1244.34V341.276ZM1245.55 340.066H1246.16V339.465H1245.55V340.066ZM1242.53 345.508H1242.15L1242.15 344.906H1242.53V345.508ZM1243.74 344.903H1242.53V343.697H1243.74V344.903ZM1244.34 343.694H1243.74V343.092H1244.34V343.694ZM1245.55 343.089H1244.34V341.883H1245.55V343.089ZM1246.16 341.88H1245.55V341.278H1246.16V341.88ZM1247.37 341.275H1246.16V340.069H1247.37V341.275ZM1247.97 340.066H1247.37V339.464H1247.97V340.066ZM1242.15 347.322H1242.53V346.717H1243.74V345.508H1244.34V344.903H1245.55V343.694H1246.16V343.089H1247.37V341.88H1247.97V341.275H1248.54V340.066H1247.97V341.275H1247.37V341.88H1246.16V343.089H1245.55V343.694H1244.34V344.903H1243.74V345.508H1242.53V346.717H1242.15L1242.15 347.322ZM1242.53 349.136H1242.15L1242.15 348.534H1242.53V349.136ZM1243.74 348.531H1242.53V347.325H1243.74V348.531ZM1244.34 347.325H1243.74V346.72H1244.34V347.325ZM1245.55 346.72H1244.34V345.511H1245.55V346.72ZM1246.16 345.511H1245.55V344.906H1246.16V345.511ZM1247.37 344.906H1246.16V343.696H1247.37V344.906ZM1247.97 343.696H1247.37V343.092H1247.97V343.696ZM1247.97 343.092V341.882H1248.54V343.092H1247.97ZM1242.15 350.951H1242.53V350.349H1242.15L1242.15 350.951ZM1242.53 350.346H1243.74V349.141H1244.34V350.346H1245.55V349.141H1246.16V350.346H1247.37V349.141H1247.97V348.537H1248.54V347.325H1247.97V346.72H1248.54V345.511H1247.97V346.72H1247.37V347.325H1246.16V348.534H1245.55V347.325H1246.16V346.72H1247.37V345.511H1247.97V344.906H1248.54V343.697H1247.97V344.906H1247.37V345.511H1246.16V346.72H1245.55V347.325H1244.34V348.534H1243.74V349.139H1242.53V350.346ZM1247.37 348.534V347.325H1247.97V348.534H1247.37ZM1246.16 348.537V349.139H1247.37V348.537H1246.16ZM1245.55 348.536V349.139H1244.34V348.536H1245.55ZM1242.53 352.765H1242.15L1242.15 352.163H1242.53V352.765ZM1243.74 352.16H1242.53V350.954H1243.74V352.16ZM1244.34 350.951H1243.74V350.349H1244.34V350.951ZM1242.15 354.279C1242.15 354.381 1242.15 354.48 1242.16 354.579H1242.53V353.977H1242.15L1242.15 354.279ZM1242.53 353.974H1243.74V352.767H1242.53V353.974ZM1243.74 352.765H1244.34V352.163H1243.74V352.765ZM1244.34 352.16H1245.55V350.953H1244.34V352.16ZM1245.55 350.951H1246.16V350.349H1245.55V350.951Z" fill="#6C6C6C"/>
<rect x="136.241" y="610.531" width="9.08268" height="8.08732" transform="rotate(90 136.241 610.531)" fill="black"/>
<rect x="9.64233" y="130.642" width="8.08732" height="9.02047" transform="rotate(90 9.64233 130.642)" fill="black"/>
<rect x="1133.47" y="610.531" width="9.08268" height="8.08732" transform="rotate(90 1133.47 610.531)" fill="black"/>
<path d="M24.8837 522.566V101.403C24.8737 96.8474 25.3323 92.3029 26.2522 87.8411C28.0245 79.2595 31.4473 71.104 36.3303 63.828C43.5948 53.0094 53.8671 44.5537 65.8801 39.5038C69.9412 37.7598 74.1738 36.4462 78.5088 35.5846C82.9705 34.6646 87.515 34.206 92.0707 34.216L1158.97 34.216C1163.53 34.206 1168.08 34.6646 1172.54 35.5846C1181.12 37.3568 1189.27 40.7796 1196.55 45.6627C1207.37 52.9271 1215.82 63.1994 1220.87 75.2125C1222.62 79.2735 1223.93 83.5062 1224.79 87.8411C1225.71 92.3029 1226.17 96.8474 1226.16 101.403V190.052C1226.15 193.484 1223.37 196.264 1219.94 196.273H1211.85C1193.67 196.275 1178.92 210.998 1178.88 229.183V394.102C1178.87 407.618 1186.96 419.826 1199.41 425.082C1203.54 426.847 1207.99 427.737 1212.48 427.695H1219.94C1223.37 427.705 1226.15 430.485 1226.16 433.916V522.566C1226.17 527.121 1225.71 531.666 1224.79 536.128C1223.02 544.709 1219.6 552.865 1214.72 560.141C1207.45 570.959 1197.18 579.415 1185.17 584.465C1181.1 586.209 1176.87 587.523 1172.54 588.384C1168.08 589.304 1163.53 589.763 1158.97 589.753L92.0707 589.753C87.515 589.763 82.9705 589.304 78.5088 588.384C69.9271 586.612 61.7717 583.189 54.4957 578.306C43.677 571.042 35.2213 560.769 30.1715 548.756C28.4275 544.695 27.1138 540.462 26.2522 536.128C25.3323 531.666 24.8737 527.121 24.8837 522.566Z" fill="#777777" fill-opacity="0.2"/>
</svg>
